<?xml version="1.0" encoding="utf-8"?>
<!-- Generator: Adobe Illustrator 16.0.0, SVG Export Plug-In . SVG Version: 6.00 Build 0)  -->
<!DOCTYPE svg PUBLIC "-//W3C//DTD SVG 1.1//EN" "http://www.w3.org/Graphics/SVG/1.1/DTD/svg11.dtd">
<svg version="1.1" id="Untitled-P_x25_E1gina_x25_201"
	 xmlns="http://www.w3.org/2000/svg" xmlns:xlink="http://www.w3.org/1999/xlink" x="0px" y="0px" width="50px" height="51px"
	 viewBox="0 0 50 51" enable-background="new 0 0 50 51" xml:space="preserve">
<path fill="none" d="z"/>
<g id="Capa_x25_201">
	<g>
		<path id="Elipse" fill="#EA8E08" stroke="#000000" d="M0,26C0,12.193,11.193,1,25,1c13.807,0,25,11.193,25,25
			c0,13.807-11.193,25-25,25C11.193,51,0,39.807,0,26z"/>
		<path fill="none" stroke="#000000" d="M22.4,1.4c0,0-13.333,4.267-14.2,23.8C7.333,44.733,16.4,49,16.4,49"/>
		<path fill="none" stroke="#000000" d="M3,15c0,0-1.267,8.267,3.8,8.8c5.067,0.534,7.4-1.4,7.4-1.4l13.6-8.8
			c0,0,9.534-6.467,14.8-4.6"/>
		<path fill="none" stroke="#000000" d="M0.6,28.4c0,0,2.467,3.199,18,3.199c15.533,0,24.2-2.199,24.2-2.199s6.534-2.066,7-3.2"/>
		<path fill="none" stroke="#000000" d="M4.6,39.6c0,0,1.267-3.934,8.2-0.8c6.934,3.134,12.2,6,12.2,6s7.666,3.8,15,0.8"/>
	</g>
</g>
<path fill="none" d="z"/>
</svg>
