<?xml version="1.0" encoding="utf-8"?>
<!-- Generator: Adobe Illustrator 16.0.0, SVG Export Plug-In . SVG Version: 6.00 Build 0)  -->
<!DOCTYPE svg PUBLIC "-//W3C//DTD SVG 1.1//EN" "http://www.w3.org/Graphics/SVG/1.1/DTD/svg11.dtd">
<svg version="1.1" id="Untitled-P_x25_E1gina_x25_201"
	 xmlns="http://www.w3.org/2000/svg" xmlns:xlink="http://www.w3.org/1999/xlink" x="0px" y="0px" width="50px" height="50px"
	 viewBox="0 0 50 50" enable-background="new 0 0 50 50" xml:space="preserve">
<path fill="none" d="z"/>
<g id="Capa_x25_201">
	<g>
		<path fill="#AD4700" stroke="#000000" d="M1.16,31.907c0,0,3.211-13.982,15.769-21.153C29.486,3.583,41.545,8.89,41.545,8.89
			s7.42,2.797,6.35,9.537s-2.997,11.688-7.635,15.632s-9.418,7.386-21.547,7.744S3.158,38.863,3.158,38.863S0.304,37.07,1.16,31.907
			z"/>
		<path fill="none" stroke="#000000" d="M15.573,16.706l0.643-0.502l2.497,3.801l-0.571,0.358L15.573,16.706z"/>
		<path fill="none" stroke="#000000" d="M18.499,14.841l0.642-0.502l2.782,3.944l-0.642,0.43L18.499,14.841z"/>
		<path fill="none" stroke="#000000" d="M21.281,13.407l0.642-0.502l2.783,3.944l-0.642,0.43L21.281,13.407z"/>
		<path fill="none" stroke="#000000" d="M23.921,12.117l0.642-0.502l2.711,3.657l-0.642,0.359L23.921,12.117z"/>
		<path fill="none" stroke="#000000" d="M26.846,10.826l0.5-0.358l2.711,3.227l-0.642,0.287L26.846,10.826z"/>
		<path fill="none" stroke="#000000" d="M29.271,9.822l0.643-0.287l2.783,3.37l-0.643,0.287L29.271,9.822z"/>
		<path fill="none" stroke="#000000" d="M34.124,8.675l0.642-0.287l2.568,3.012l-0.642,0.144L34.124,8.675z"/>
		<path fill="none" stroke="#000000" d="M16.215,18.427c0,0-10.584,8.031-15.126,16.851c0,0,6.588-9.68,15.554-16.205
			C16.643,19.072,16.857,18.427,16.215,18.427z"/>
		<path fill="none" stroke="#000000" d="M44.826,10.826c0,0-3.377-1.482-9.133-1.362l0.856,0.86
			C36.55,10.324,40.26,9.679,44.826,10.826z"/>
		<path fill="none" stroke="#000000" d="M16.215,18.427c0,0-0.107-0.323,0.285-0.574s11.238-7.207,18.48-8.174"/>
		<path fill="none" stroke="#000000" d="M17.5,17.997c0,0,9.133-6.023,17.837-7.888"/>
		<path fill="none" stroke="#000000" d="M16.643,19.215c0,0,0.321,0.215,0.642,0c0.321-0.215,6.208-5.199,18.48-8.676"/>
		<path fill="#FFFFFF" stroke="#000000" d="M34.09,7.064c0,0,10.354,8.046,11.115,20.68c0,0,1.609-3.756,2.033-6.146
			c0,0-2.287-9.134-7.876-13.317C39.362,8.28,36.885,7.491,34.09,7.064z"/>
		<path fill="#FFFFFF" stroke="#000000" d="M6.268,20.83c0,0,3.625,13.915,13.278,21c0,0-4.312,0.546-6.733-0.318
			c0,0-7.494-7.023-9.272-15.895C3.541,25.617,4.747,23.327,6.268,20.83z"/>
	</g>
</g>
<path fill="none" d="z"/>
</svg>
