<?xml version="1.0" standalone="no"?>
<!-- Generator: Adobe Fireworks 10, Export SVG Extension by Aaron Beall (http://fireworks.abeall.com) . Version: 0.6.1  -->
<!DOCTYPE svg PUBLIC "-//W3C//DTD SVG 1.1//EN" "http://www.w3.org/Graphics/SVG/1.1/DTD/svg11.dtd">
<svg id="Untitled-P%E1gina%201" viewBox="0 0 50 50" style="background-color:#ffffff00" version="1.1"
	xmlns="http://www.w3.org/2000/svg" xmlns:xlink="http://www.w3.org/1999/xlink" xml:space="preserve"
	x="0px" y="0px" width="50px" height="50px"
>
	<g id="Capa%201">
		<g>
			<path d="M 1.1602 31.9075 C 1.1602 31.9075 4.3709 17.9247 16.9286 10.7541 C 29.4861 3.5835 41.5443 8.8898 41.5443 8.8898 C 41.5443 8.8898 48.9647 11.6863 47.8944 18.4267 C 46.8242 25.1671 44.8977 30.1148 40.26 34.0586 C 35.6222 38.0025 30.8418 41.4444 18.7123 41.8029 C 6.5828 42.1614 3.1581 38.8629 3.1581 38.8629 C 3.1581 38.8629 0.304 37.0703 1.1602 31.9075 Z" stroke="#000000" stroke-width="1" fill="#ffffff"/>
			<path d="M 15.5729 16.7057 L 16.2151 16.2038 L 18.7123 20.0042 L 18.1415 20.3628 L 15.5729 16.7057 Z" stroke="#000000" stroke-width="1" fill="none"/>
			<path d="M 18.4983 14.8414 L 19.1404 14.3394 L 21.923 18.2833 L 21.2809 18.7135 L 18.4983 14.8414 Z" stroke="#000000" stroke-width="1" fill="none"/>
			<path d="M 21.2809 13.4073 L 21.923 12.9053 L 24.7057 16.8492 L 24.0636 17.2794 L 21.2809 13.4073 Z" stroke="#000000" stroke-width="1" fill="none"/>
			<path d="M 23.9208 12.1166 L 24.563 11.6146 L 27.2743 15.2716 L 26.6322 15.6302 L 23.9208 12.1166 Z" stroke="#000000" stroke-width="1" fill="none"/>
			<path d="M 26.8462 10.8258 L 27.3456 10.4673 L 30.0569 13.6941 L 29.4148 13.9809 L 26.8462 10.8258 Z" stroke="#000000" stroke-width="1" fill="none"/>
			<path d="M 29.2721 9.8219 L 29.9142 9.5351 L 32.6969 12.9053 L 32.0547 13.1922 L 29.2721 9.8219 Z" stroke="#000000" stroke-width="1" fill="none"/>
			<path d="M 34.1239 8.6747 L 34.766 8.3878 L 37.3346 11.3995 L 36.6924 11.5429 L 34.1239 8.6747 Z" stroke="#000000" stroke-width="1" fill="none"/>
			<path d="M 16.2151 18.4267 C 16.2151 18.4267 5.6315 26.4578 1.0889 35.2776 C 1.0889 35.2776 7.6768 25.5973 16.6432 19.0721 C 16.6432 19.0721 16.8572 18.4267 16.2151 18.4267 Z" stroke="#000000" stroke-width="1" fill="none"/>
			<path d="M 44.8264 10.8258 C 44.8264 10.8258 41.4492 9.3439 35.6936 9.4634 L 36.5498 10.3239 C 36.5498 10.3239 40.26 9.6785 44.8264 10.8258 Z" stroke="#000000" stroke-width="1" fill="none"/>
			<path d="M 16.2151 18.4267 C 16.2151 18.4267 16.108 18.104 16.5005 17.853 C 16.8929 17.6021 27.7381 10.6466 34.9801 9.6785 " stroke="#000000" stroke-width="1" fill="none"/>
			<path d="M 17.4994 17.9965 C 17.4994 17.9965 26.6322 11.9731 35.3369 10.1088 " stroke="#000000" stroke-width="1" fill="none"/>
			<path d="M 16.6432 19.2155 C 16.6432 19.2155 16.9642 19.4306 17.2853 19.2155 C 17.6064 19.0003 23.4928 14.0168 35.765 10.539 " stroke="#000000" stroke-width="1" fill="none"/>
			<path d="M 34.0905 7.064 C 34.0905 7.064 44.4432 15.11 45.2054 27.7444 C 45.2054 27.7444 46.8144 23.9883 47.2378 21.5979 C 47.2378 21.5979 44.9513 12.4636 39.3622 8.2805 C 39.3622 8.2805 36.8851 7.4909 34.0905 7.064 Z" stroke="#000000" stroke-width="1" fill="#ffffff"/>
			<path d="M 6.2675 20.8296 C 6.2675 20.8296 9.8919 34.7446 19.5459 41.8302 C 19.5459 41.8302 15.2344 42.3757 12.8128 41.5112 C 12.8128 41.5112 5.3189 34.4885 3.5405 25.6167 C 3.5405 25.6167 4.7473 23.3266 6.2675 20.8296 Z" stroke="#000000" stroke-width="1" fill="#ffffff"/>
		</g>
	</g>
</svg>