<?xml version="1.0" encoding="utf-8"?>
<!-- Generator: Adobe Illustrator 16.0.0, SVG Export Plug-In . SVG Version: 6.00 Build 0)  -->
<!DOCTYPE svg PUBLIC "-//W3C//DTD SVG 1.1//EN" "http://www.w3.org/Graphics/SVG/1.1/DTD/svg11.dtd">
<svg version="1.1" id="Untitled-P_x25_E1gina_x25_201"
	 xmlns="http://www.w3.org/2000/svg" xmlns:xlink="http://www.w3.org/1999/xlink" x="0px" y="0px" width="50px" height="50px"
	 viewBox="0 0 50 50" enable-background="new 0 0 50 50" xml:space="preserve">
<path fill="none" d="z"/>
<g id="Capa_x25_201">
	<g>
		<path id="Elipse" fill="#FFFFFF" stroke="#000000" d="M0,25C0,11.193,11.193,0,25,0c13.807,0,25,11.193,25,25
			c0,13.807-11.193,25-25,25C11.193,50,0,38.807,0,25z"/>
		<polygon fill="#F9C728" points="17.909,36.643 25.833,36.643 30.111,35.882 29.559,41.196 28.197,45.231 21.528,45.837 
			13.333,44.34 7.168,41.368 4.5,39.309 1.549,33.68 0.208,27.584 0,23 2.87,28.162 7.082,32.42 11.747,35.048 		"/>
		<polygon fill="#F9C728" points="31.904,15.952 36.971,22.579 40.251,32.619 39.854,40.039 37.539,46.586 43.688,41.603 
			47.447,36.015 48.816,32.619 47.027,23.992 43.232,15.369 41.5,12.619 36.68,13.452 		"/>
		<polygon fill="#1C57A7" points="5.775,16.342 10.101,9.425 17.25,2.521 19.373,0.638 12.574,3.304 7.75,6.911 3.986,11.457 
			3.571,12.119 		"/>
		<polygon fill="#F9C728" points="9.746,20.91 13.333,23.571 16.804,15.952 23.572,8.453 29.929,5.025 37.539,3.571 34.996,2.079 
			27.345,0 20.432,0.418 13.333,5.717 8.117,12.386 5.775,16.342 		"/>
		<polygon fill="#1C57A7" points="14.286,44.514 22.5,45.836 28.197,45.231 25.209,49.999 17.975,48.997 9.107,44.299 6.303,40.7 		
			"/>
		<polygon fill="#1C57A7" points="11.747,35.048 19.167,36.897 25.437,36.643 29.832,35.932 28.232,30.234 24.762,25 17.35,25 
			10.367,21.439 6.5,17.353 3.571,12.619 1.271,17.117 0.208,22.249 0.208,24.249 4.039,29.603 		"/>
		<polygon fill="#1C57A7" points="19.833,25.477 25,25 27.873,19.895 33.306,15.032 41.031,12.54 46.508,12.619 42.882,7.532 
			37.539,3.571 30.677,4.773 24.463,7.81 18.455,13.571 14.15,21.188 13.333,23.571 		"/>
		<path id="Elipse_1_" fill="none" stroke="#000000" d="M0,25C0,11.193,11.193,0,25,0c13.807,0,25,11.193,25,25
			c0,13.807-11.193,25-25,25C11.193,50,0,38.807,0,25z"/>
		<path fill="none" stroke="#000000" d="M24.762,25c0,0,11.32,11.269,0.448,24.999"/>
		<path fill="none" stroke="#000000" d="M41.031,12.54c0,0,6.35,5.953,7.54,20.08"/>
		<path fill="none" stroke="#000000" d="M31.904,15.952c0,0,14.604,13.096,5.477,30.952"/>
		<path fill="none" stroke="#000000" d="M25,24.762c0,0,5.317-14.365,21.508-12.143"/>
		<path fill="none" stroke="#000000" d="M13.333,23.571c0,0,4.92-19.127,24.206-20"/>
		<path fill="none" stroke="#000000" d="M5.953,16.667c0,0,4.464-11.903,15.575-16.427"/>
		<path fill="none" stroke="#000000" d="M25,25c0,0-12.937,4.207-21.429-12.381"/>
		<path fill="none" stroke="#000000" d="M30.111,35.882c0,0-21.57,6.261-29.903-12.311"/>
		<path fill="none" stroke="#000000" d="M28.197,45.231c0,0-12.306,3.332-23.496-5.637"/>
	</g>
</g>
<path fill="none" d="z"/>
</svg>
