<?xml version="1.0" encoding="utf-8"?>
<!-- Generator: Adobe Illustrator 16.0.0, SVG Export Plug-In . SVG Version: 6.00 Build 0)  -->
<!DOCTYPE svg PUBLIC "-//W3C//DTD SVG 1.1//EN" "http://www.w3.org/Graphics/SVG/1.1/DTD/svg11.dtd">
<svg version="1.1" id="Untitled-P_x25_E1gina_x25_201"
	 xmlns="http://www.w3.org/2000/svg" xmlns:xlink="http://www.w3.org/1999/xlink" x="0px" y="0px" width="50px" height="50px"
	 viewBox="0 0 50 50" enable-background="new 0 0 50 50" xml:space="preserve">
<path fill="none" d="z"/>
<g id="Capa_x25_201">
	<g>
		<polygon fill="#1C57A7" points="5.953,16.25 8.049,12.386 11.036,8.12 14.726,4.396 20.053,0.976 19.034,0.717 14.671,2.227 
			8.676,6.065 5.328,9.57 3.322,12.54 		"/>
		<polygon fill="#1C57A7" points="19.875,25.477 22.083,25.477 25,24.762 26.72,21.51 29.396,18.147 34.069,14.597 37.93,13.114 
			42.875,12.386 46.917,12.619 44.246,9.045 41.627,6.332 39.826,4.87 37.883,3.571 33.686,4.015 28.187,5.722 23.25,8.571 
			20.164,11.539 17.942,14.257 16.368,16.667 15.083,19.198 13.959,21.683 13.333,23.442 15.958,24.762 		"/>
		<polygon fill="#1C57A7" points="30.458,35.667 25,37 19.917,37.42 13.401,36.377 8.587,33.827 5.564,31.428 2.583,27.106 
			0.041,23.571 1.238,17.211 3.571,12.619 5,15.153 6.833,18.083 10.756,21.753 16.19,25.02 21.833,25.477 25,25.477 27.464,28.31 
					"/>
		<polygon fill="#1C57A7" points="21.19,46.052 23.625,46.052 25.593,45.826 27.842,45.551 26.158,48.166 25,49.375 23.25,50 
			18.744,49.21 13.843,47.377 9.444,44.57 5.953,41.192 6.652,40.869 9.775,42.907 13.571,44.938 16.897,45.489 		"/>
		<polygon fill="#F9C728" points="39.667,29.833 38.833,26.583 36.97,22.579 34.648,19.048 32.625,16.667 31.92,15.952 
			35.754,13.802 39.083,12.75 41.5,12.54 45.005,18.574 47.302,25 47.917,29.833 48.571,33.345 45.953,38.637 43.21,42.123 
			40.382,44.705 37.539,46.589 39.333,41.167 40.382,37.42 40.333,33.083 		"/>
		<polygon fill="#F9C728" points="13.333,23.442 14.778,19.718 18.122,14.011 22.446,9.352 27.381,6.104 33.686,4.015 37.178,3.164 
			31.904,1.333 27.381,0.113 22.167,0.113 16.766,2.856 11.383,7.708 8.416,11.778 6.663,15.003 5.953,16.667 8.395,19.6 
			10.975,21.92 		"/>
		<polygon fill="#F9C728" points="30.166,35.667 23.918,37.182 15.826,37 10.366,35.099 6.402,32.266 3.571,28.667 1.55,25.477 
			0.041,23.571 0.581,30.377 2.704,36.314 5.467,40.126 10.457,43.254 17.4,45.588 24.762,46.052 28.058,45.156 29.671,41.022 		"/>
		<path id="Elipse" fill="none" stroke="#000000" d="M0,25C0,11.193,11.193,0,25,0c13.807,0,25,11.193,25,25
			c0,13.807-11.193,25-25,25C11.193,50,0,38.807,0,25z"/>
		<path fill="none" stroke="#000000" d="M24.762,25c0,0,11.635,10.27,0.762,24"/>
		<path fill="none" stroke="#000000" d="M41.031,12.54c0,0,6.35,5.953,7.54,20.08"/>
		<path fill="none" stroke="#000000" d="M31.904,15.952c0,0,14.604,13.096,5.477,30.952"/>
		<path fill="none" stroke="#000000" d="M25,24.762c0,0,5.317-14.365,21.508-12.143"/>
		<path fill="none" stroke="#000000" d="M13.333,23.571c0,0,4.92-19.127,24.206-20"/>
		<path fill="none" stroke="#000000" d="M5.953,16.667c0,0,4.127-11.667,15.238-16.19"/>
		<path fill="none" stroke="#000000" d="M25,25c0,0-12.937,4.207-21.429-12.381"/>
		<path fill="none" stroke="#000000" d="M30.166,35.667c0,0-21.604,7.24-30.166-12.542"/>
		<path fill="none" stroke="#000000" d="M27.381,45.477c0,0-11.19,3.254-22.381-5.715"/>
	</g>
</g>
<path fill="none" d="z"/>
</svg>
